#N canvas 174 81 1440 805 10;
#X obj 413 432 dac~;
#X floatatom 300 47 5 0 0 0 - - -, f 5;
#X obj 344 75 1;
#X obj 70 193 osc~ 100;
#X obj 229 235 *~ 0.7;
#X obj 337 239 *~ 0.4;
#X obj 280 239 *~ 0.5;
#X obj 176 237 *~ 1;
#X obj 411 236 *~ 0.3;
#X obj 468 233 *~ 0.3;
#X obj 540 197 *~ 0.2;
#X obj 135 204 osc~ 200;
#X obj 202 204 osc~ 300;
#X obj 267 204 osc~ 400;
#X obj 328 203 osc~ 500;
#X obj 394 208 osc~ 600;
#X obj 465 192 osc~ 700;
#X obj 517 143 osc~ 800;
#X floatatom 48 78 5 0 0 0 - - -, f 5;
#X floatatom 230 124 5 0 0 0 - - -, f 5;
#X floatatom 169 127 5 0 0 0 - - -, f 5;
#X floatatom 347 120 5 0 0 0 - - -, f 5;
#X floatatom 286 123 5 0 0 0 - - -, f 5;
#X floatatom 464 111 5 0 0 0 - - -, f 5;
#X floatatom 403 114 5 0 0 0 - - -, f 5;
#X floatatom 591 95 5 0 0 0 - - -, f 5;
#X floatatom 530 98 5 0 0 0 - - -, f 5;
#X obj 188 323 vcf~;
#X obj 224 305 vcf~;
#X obj 250 323 vcf~;
#X obj 282 309 vcf~;
#X obj 378 301 vcf~;
#X obj 334 300 vcf~;
#X obj 452 291 vcf~;
#X obj 755 216 *~ 0.7;
#X obj 863 220 *~ 0.4;
#X obj 806 220 *~ 0.5;
#X obj 702 218 *~ 1;
#X obj 937 217 *~ 0.3;
#X obj 994 214 *~ 0.3;
#X obj 1066 178 *~ 0.2;
#X floatatom 756 105 5 0 0 0 - - -, f 5;
#X floatatom 695 108 5 0 0 0 - - -, f 5;
#X floatatom 873 101 5 0 0 0 - - -, f 5;
#X floatatom 812 104 5 0 0 0 - - -, f 5;
#X floatatom 1012 69 5 0 0 0 - - -, f 5;
#X floatatom 929 95 5 0 0 0 - - -, f 5;
#X floatatom 1117 76 5 0 0 0 - - -, f 5;
#X floatatom 1056 79 5 0 0 0 - - -, f 5;
#X obj 714 304 vcf~;
#X obj 750 286 vcf~;
#X obj 776 304 vcf~;
#X obj 808 290 vcf~;
#X obj 904 282 vcf~;
#X obj 860 281 vcf~;
#X obj 941 306 vcf~;
#X obj 596 174 osc~ 150;
#X obj 661 185 osc~ 225;
#X obj 728 185 osc~ 325;
#X obj 793 185 osc~ 420;
#X obj 854 184 osc~ 525;
#X obj 920 189 osc~ 620;
#X obj 991 173 osc~ 725;
#X obj 1043 124 osc~ 820;
#X obj 348 412 rev1~;
#X floatatom 409 400 5 0 0 0 - - -, f 5;
#X obj 348 363 *~ 0.6;
#X obj 304 392 bob~;
#X msg 425 369 1;
#X msg 455 364 0;
#X obj 115 96 rev1~;
#X obj 125 106;
#X connect 1 0 3 0;
#X connect 1 0 12 0;
#X connect 1 0 11 0;
#X connect 1 0 13 0;
#X connect 1 0 14 0;
#X connect 1 0 15 0;
#X connect 1 0 16 0;
#X connect 1 0 17 0;
#X connect 1 0 56 0;
#X connect 1 0 57 0;
#X connect 1 0 58 0;
#X connect 1 0 59 0;
#X connect 1 0 60 0;
#X connect 1 0 61 0;
#X connect 1 0 62 0;
#X connect 1 0 63 0;
#X connect 2 0 3 1;
#X connect 3 0 7 0;
#X connect 4 0 28 0;
#X connect 4 0 66 0;
#X connect 5 0 32 0;
#X connect 5 0 66 0;
#X connect 6 0 29 0;
#X connect 6 0 66 0;
#X connect 7 0 27 0;
#X connect 7 0 66 0;
#X connect 8 0 31 0;
#X connect 8 0 66 0;
#X connect 9 0 33 0;
#X connect 9 0 66 0;
#X connect 10 0 33 1;
#X connect 10 0 66 0;
#X connect 11 0 4 0;
#X connect 12 0 6 0;
#X connect 13 0 5 0;
#X connect 15 0 8 0;
#X connect 16 0 9 0;
#X connect 17 0 10 0;
#X connect 18 0 70 0;
#X connect 19 0 13 0;
#X connect 20 0 12 0;
#X connect 21 0 15 0;
#X connect 21 0 27 2;
#X connect 22 0 14 0;
#X connect 23 0 17 0;
#X connect 23 0 17 1;
#X connect 24 0 16 0;
#X connect 25 0 56 0;
#X connect 27 0 66 0;
#X connect 28 0 66 0;
#X connect 29 0 66 0;
#X connect 31 0 66 0;
#X connect 32 0 66 0;
#X connect 33 0 66 0;
#X connect 34 0 50 0;
#X connect 35 0 54 0;
#X connect 36 0 51 0;
#X connect 37 0 49 0;
#X connect 38 0 53 0;
#X connect 39 0 55 0;
#X connect 40 0 55 1;
#X connect 41 0 59 0;
#X connect 42 0 58 0;
#X connect 43 0 61 0;
#X connect 44 0 60 0;
#X connect 45 0 63 0;
#X connect 46 0 62 0;
#X connect 49 0 64 0;
#X connect 51 0 0 0;
#X connect 52 0 0 0;
#X connect 53 0 66 0;
#X connect 54 0 66 0;
#X connect 55 0 66 0;
#X connect 56 0 37 0;
#X connect 57 0 34 0;
#X connect 58 0 36 0;
#X connect 59 0 35 0;
#X connect 61 0 38 0;
#X connect 62 0 39 0;
#X connect 63 0 40 0;
#X connect 64 0 0 0;
#X connect 64 0 0 1;
#X connect 65 0 64 2;
#X connect 65 0 64 1;
#X connect 66 0 67 0;
#X connect 67 0 64 0;
#X connect 68 0 0 0;
#X connect 69 0 0 0;
#X connect 70 0 3 0;
