#N canvas 740 225 468 402 10;
#X floatatom 85 82 5 0 0 0 - - -, f 5;
#X floatatom 329 74 5 0 0 0 - - -, f 5;
#X obj 206 63 osc~;
#X obj 19 121 phasor~;
#X obj 193 210 *~;
#X obj 134 199 cos~;
#X obj 161 261 dac~;
#X obj 53 257 +~;
#X symbolatom 128 -113 10 0 0 0 - - -, f 10;
#X symbolatom 128 -94 10 0 0 0 - - -, f 10;
#X obj 156 222 *~ 0.2;
#X msg 356 -14 1;
#X msg 239 -8 0;
#X msg 96 3 1;
#X msg 151 6 0;
#X msg 12 22 1;
#X msg 67 25 0;
#X obj 371 108 rzero_rev~;
#X obj 255 147 rfft~;
#X obj 299 195 random;
#X symbolatom 390 17 10 0 0 0 - - -, f 10;
#X floatatom 161 37 5 0 0 0 - - -, f 5;
#X obj 180 103 bob~;
#X obj 126 60 rev1~;
#X obj 71 163 rev3~;
#X connect 0 0 3 0;
#X connect 0 0 3 1;
#X connect 0 0 19 1;
#X connect 0 0 4 0;
#X connect 0 0 22 0;
#X connect 0 0 22 2;
#X connect 0 0 24 0;
#X connect 0 0 24 2;
#X connect 1 0 2 1;
#X connect 1 0 18 0;
#X connect 1 0 17 0;
#X connect 1 0 19 0;
#X connect 1 0 19 1;
#X connect 1 0 17 1;
#X connect 2 0 18 0;
#X connect 2 0 22 0;
#X connect 2 0 22 1;
#X connect 3 0 7 0;
#X connect 3 0 24 0;
#X connect 4 0 7 1;
#X connect 4 0 5 0;
#X connect 5 0 10 0;
#X connect 7 0 5 0;
#X connect 8 0 9 0;
#X connect 10 0 6 0;
#X connect 10 0 6 1;
#X connect 11 0 1 0;
#X connect 11 0 2 1;
#X connect 12 0 1 0;
#X connect 12 0 2 0;
#X connect 13 0 21 0;
#X connect 14 0 21 0;
#X connect 15 0 0 0;
#X connect 16 0 0 0;
#X connect 17 0 18 0;
#X connect 17 0 4 1;
#X connect 18 0 4 1;
#X connect 18 0 22 0;
#X connect 19 0 4 0;
#X connect 19 0 10 1;
#X connect 21 0 23 0;
#X connect 21 0 23 2;
#X connect 21 0 22 0;
#X connect 21 0 2 0;
#X connect 22 0 4 0;
#X connect 22 0 5 0;
#X connect 23 0 0 0;
#X connect 23 0 4 0;
#X connect 23 0 22 0;
#X connect 23 0 22 2;
#X connect 24 0 10 0;
#X connect 24 2 5 0;
